<svg
  viewBox="0 0 186 39"
  fill="none"
  xmlns="http://www.w3.org/2000/svg"
>
  <g clip-path="url(#clip0_2501_1709)">
    <path
      d="M126.51 11.1931H123.132C122.612 11.1931 122.191 11.6257 122.191 12.1607V13.5316C122.191 14.0665 122.613 14.4991 123.132 14.4991H126.51C127.03 14.4991 127.45 14.0665 127.45 13.5316V12.1607C127.45 11.6257 127.028 11.1931 126.51 11.1931Z"
      fill="#0075FF"
    />
    <path
      d="M61.8138 15.8452H58.459C58.3354 15.8452 58.2132 15.8686 58.0981 15.9168C57.9844 15.9651 57.8807 16.0382 57.794 16.1288C57.7073 16.2194 57.6405 16.3275 57.595 16.4459C57.5496 16.5643 57.5297 16.6915 57.5339 16.8186V27.1912C56.4299 28.2932 55.0402 29.3133 53.5582 29.3133C51.8545 29.3133 50.6822 28.2405 50.6822 25.6142V16.7938C50.6822 16.6681 50.6609 16.5438 50.614 16.4269C50.5671 16.31 50.4989 16.2048 50.4122 16.1171C50.3256 16.0279 50.2218 15.9592 50.1082 15.9125C49.9945 15.8657 49.8723 15.8438 49.7515 15.8452H46.3811C46.2589 15.8423 46.1381 15.8642 46.0244 15.911C45.9107 15.9578 45.807 16.0265 45.7203 16.1156C45.6336 16.2048 45.5654 16.31 45.52 16.4269C45.4745 16.5438 45.4518 16.6681 45.4532 16.7938V25.6185C45.4532 30.8552 48.3022 33.0271 52.3262 33.0271C54.5983 33.0271 56.1429 32.0537 57.5425 30.8596C57.5467 30.9371 57.5467 31.016 57.5425 31.0935V32.0888C57.5382 32.2159 57.5595 32.3431 57.6036 32.4615C57.6476 32.5798 57.7158 32.688 57.8025 32.7786C57.8892 32.8692 57.9929 32.9423 58.1066 32.9905C58.2203 33.0388 58.3439 33.0636 58.4675 33.0622H61.8152C61.9388 33.0622 62.0596 33.0373 62.1733 32.9891C62.287 32.9394 62.3893 32.8678 62.4745 32.7772C62.5598 32.6865 62.6266 32.5784 62.6706 32.46C62.7147 32.3416 62.7346 32.2159 62.7303 32.0888V16.8128C62.7346 16.6871 62.7132 16.5614 62.6692 16.443C62.6252 16.3261 62.5584 16.2179 62.4717 16.1288C62.3864 16.0382 62.2841 15.9665 62.1705 15.9183C62.0568 15.8701 61.936 15.8452 61.8138 15.8452Z"
      fill="#0075FF"
    />
    <path
      d="M70.6547 25.9313C70.8664 28.4627 71.9591 29.5633 74.4543 29.5633C75.7331 29.5633 76.8571 29.1862 77.3743 28.5241C77.5761 28.2596 77.8347 28.0462 78.1317 27.9044C78.4272 27.7612 78.7526 27.6925 79.0794 27.7027H81.2961C81.4169 27.7013 81.5376 27.7232 81.6499 27.77C81.7621 27.8167 81.8645 27.8869 81.9497 27.9746C82.035 28.0637 82.1017 28.169 82.1472 28.2844C82.1927 28.3999 82.214 28.5241 82.2112 28.6483C82.2112 31.9339 78.9558 33.0666 74.0905 33.0666C68.6754 33.0666 65.4229 30.0368 65.4229 24.3251C65.4229 18.6134 68.7095 15.5427 74.0905 15.5427C79.4716 15.5427 82.754 18.5418 82.754 24.0986V24.9843C82.7568 25.1085 82.7355 25.2327 82.6914 25.3482C82.6474 25.4636 82.5806 25.5689 82.4953 25.658C82.4101 25.7472 82.3092 25.8159 82.1969 25.8626C82.0847 25.9094 81.9653 25.9328 81.8431 25.9299H70.6547V25.9313ZM70.6249 22.6809H77.5278C77.4354 20.3146 76.3413 19.0475 74.0891 19.0475C71.8369 19.0475 70.7457 20.3146 70.6206 22.6809H70.6249Z"
      fill="#0075FF"
    />
    <path
      d="M92.8201 33.0665C87.9378 33.0665 84.8373 31.9309 84.8373 28.6469C84.833 28.5241 84.8529 28.4013 84.897 28.2859C84.9396 28.1704 85.005 28.0666 85.0888 27.9775C85.1726 27.8883 85.2721 27.8182 85.3829 27.7714C85.4938 27.7232 85.6117 27.6998 85.7325 27.6998H87.9093C88.2305 27.691 88.5488 27.7612 88.8386 27.9044C89.1285 28.0476 89.3814 28.2595 89.5747 28.5212C90.0805 29.1832 91.1846 29.5603 92.4606 29.5603C94.9628 29.5603 95.7984 28.9625 95.7984 28.071C95.7984 25.4519 84.8174 26.9032 84.8174 20.5251C84.8174 16.9575 88.1779 15.5325 92.3796 15.5325C97.2605 15.5325 100.358 16.671 100.358 19.958C100.362 20.0808 100.341 20.2035 100.298 20.319C100.256 20.4345 100.19 20.5382 100.107 20.6274C100.023 20.7165 99.9233 20.7867 99.8125 20.8335C99.7017 20.8817 99.5837 20.9065 99.4644 20.9065H97.2875C96.9664 20.9168 96.6481 20.8466 96.3582 20.7034C96.0683 20.5602 95.8168 20.3482 95.6236 20.0852C95.1163 19.4187 94.0165 19.0416 92.7362 19.0416C90.6816 19.0416 89.8489 19.6394 89.8489 20.5251C89.8489 23.15 100.83 21.6329 100.83 28.071C100.828 31.6459 97.4651 33.0651 92.8215 33.0651L92.8201 33.0665Z"
      fill="#0075FF"
    />
    <path
      d="M32.0066 22.9074C33.7628 22.9074 34.6083 22.1562 35.2122 20.8321L36.6345 17.5392C36.8178 17.1168 37.1134 16.7573 37.4871 16.5001C37.8608 16.2443 38.2984 16.1025 38.7475 16.0923H41.5211C42.3069 16.0923 42.4021 16.7208 42.0341 17.5378L40.13 21.8698C39.502 23.2524 38.2913 24.3544 36.9926 24.6364C38.2359 25.0121 39.2306 25.8948 40.13 27.4031L42.6351 31.6168C43.1154 32.4381 42.9079 33.0651 42.1193 33.0651H39.3514C38.3837 33.0651 37.5695 32.4381 37.0892 31.6168L35.2136 28.4394C34.4037 27.0611 33.3692 26.3991 32.008 26.3991V32.1224C32.0108 32.2467 31.9895 32.3694 31.9469 32.4834C31.9028 32.5989 31.8375 32.7027 31.7522 32.7918C31.6684 32.8795 31.5675 32.9497 31.4567 32.9964C31.3458 33.0432 31.2265 33.0681 31.1071 33.0666H27.6656C27.5448 33.0666 27.4255 33.0447 27.3146 32.9964C27.2038 32.9497 27.1029 32.8795 27.0177 32.7918C26.9324 32.7041 26.867 32.5989 26.8216 32.4834C26.7775 32.368 26.7562 32.2452 26.7591 32.121V12.2601C26.7562 12.1359 26.7761 12.0131 26.8216 11.8977C26.8656 11.7822 26.9324 11.677 27.0177 11.5893C27.1029 11.5016 27.2038 11.4314 27.3146 11.3847C27.4269 11.3379 27.5463 11.3145 27.667 11.316H31.1085C31.2293 11.316 31.3472 11.3379 31.4595 11.3861C31.5703 11.4329 31.6712 11.5031 31.755 11.5908C31.8389 11.6784 31.9057 11.7837 31.9483 11.8991C31.9923 12.0146 32.0122 12.1374 32.0094 12.2601V22.9074H32.0066Z"
      fill="#0075FF"
    />
    <path
      d="M108.812 22.8607C110.57 22.8607 111.414 22.1036 112.018 20.7736L113.44 17.4632C113.622 17.0394 113.918 16.6784 114.291 16.4211C114.665 16.1639 115.103 16.0221 115.553 16.0105H118.327C119.113 16.0105 119.208 16.6433 118.843 17.4632L116.937 21.8171C116.306 23.2056 115.097 24.3135 113.798 24.5955C115.043 24.9755 116.036 25.8612 116.937 27.3783L119.448 31.608C119.928 32.4338 119.721 33.0651 118.932 33.0651H116.157C115.189 33.0651 114.375 32.4338 113.885 31.608L112.009 28.4145C111.199 27.0305 110.165 26.364 108.804 26.364V32.1137C108.808 32.2379 108.787 32.3607 108.744 32.4761C108.7 32.5916 108.635 32.6968 108.551 32.786C108.467 32.8751 108.366 32.9453 108.255 32.9935C108.144 33.0418 108.025 33.0651 107.904 33.0651H104.471C104.35 33.0651 104.231 33.0418 104.119 32.995C104.008 32.9468 103.906 32.8766 103.822 32.7889C103.738 32.6998 103.671 32.5945 103.627 32.4791C103.583 32.3636 103.562 32.2394 103.565 32.1151V12.1593C103.562 12.0351 103.583 11.9123 103.627 11.7968C103.671 11.6814 103.738 11.5761 103.823 11.4885C103.909 11.4008 104.009 11.3306 104.12 11.2824C104.233 11.2356 104.352 11.2122 104.473 11.2137H107.914C108.035 11.2137 108.154 11.2356 108.265 11.2838C108.376 11.3306 108.477 11.4008 108.561 11.4899C108.645 11.5776 108.711 11.6828 108.754 11.7983C108.798 11.9138 108.818 12.0365 108.814 12.1608V22.8622L108.812 22.8607Z"
      fill="#0075FF"
    />
    <path
      d="M123.135 33.0665C123.01 33.0665 122.885 33.0417 122.77 32.992C122.655 32.9423 122.549 32.8692 122.461 32.7772C122.373 32.6851 122.304 32.5769 122.257 32.4571C122.21 32.3372 122.187 32.2101 122.189 32.0815V16.918C122.187 16.7894 122.21 16.6608 122.257 16.5424C122.304 16.424 122.373 16.3144 122.461 16.2223C122.549 16.1302 122.655 16.0586 122.77 16.0089C122.885 15.9592 123.01 15.9344 123.135 15.9344H126.568C126.693 15.9329 126.818 15.9563 126.934 16.0045C127.051 16.0528 127.158 16.1259 127.246 16.2179C127.334 16.31 127.403 16.4196 127.45 16.5395C127.497 16.6593 127.518 16.7894 127.514 16.918V32.0815C127.518 32.2101 127.496 32.3402 127.45 32.46C127.403 32.5799 127.335 32.6895 127.246 32.7815C127.158 32.8736 127.051 32.9467 126.934 32.9949C126.818 33.0432 126.693 33.068 126.568 33.0651H123.135V33.0665Z"
      fill="#0075FF"
    />
    <path
      d="M20.439 19.3382C20.439 19.8044 19.5722 27.8794 19.1615 31.827C19.0422 32.9919 17.8998 33.0679 17.5928 33.0679H4.39237C3.01833 33.0679 2.52953 32.4482 2.39596 31.7086C2.25529 30.9325 1.52635 23.3399 1.1626 20.6959L1.03613 19.382C1.03613 18.7272 1.48373 18.1646 2.10609 18.1646H19.3008C19.4514 18.1646 19.6006 18.1952 19.7399 18.2552C19.8791 18.3151 20.0056 18.4013 20.1107 18.5109C20.2173 18.6206 20.2997 18.7506 20.3565 18.8939C20.4134 19.0371 20.4404 19.1906 20.439 19.344V19.3367V19.3382Z"
      fill="url(#paint0_linear_2501_1709)"
    />
    <path
      d="M20.4486 11.32H14.978C15.0164 9.93154 15.6459 9.51354 16.9318 8.67169L19.9613 6.67669C20.3691 6.42531 20.7101 6.07162 20.9516 5.65069C21.1932 5.22977 21.3282 4.75185 21.3452 4.26369V1.29677C21.3452 0.453463 20.7513 0.228386 19.974 0.74431L15.9556 3.40869C14.5191 4.36892 13.6836 5.43731 13.3056 6.75416C13.0498 5.36862 12.0083 4.07077 10.6939 3.38823L6.71959 1.34354C5.9395 0.954771 5.34555 1.05123 5.33986 1.89016L5.32992 4.85708C5.33276 5.32769 5.46206 5.78808 5.70504 6.18854C5.9466 6.589 6.29189 6.912 6.70112 7.12246L9.68934 8.64392C10.9213 9.28262 11.6317 9.52377 11.6587 11.3185H0.889503C0.772987 11.3185 0.657892 11.3405 0.549901 11.3858C0.44191 11.4311 0.343866 11.4983 0.261451 11.5816C0.179037 11.6664 0.113675 11.7658 0.0682047 11.8768C0.0227349 11.9879 0 12.1063 0 12.2262V15.8464C0 15.9662 0.0241558 16.0832 0.0696257 16.1942C0.115095 16.3038 0.180458 16.4047 0.262872 16.488C0.345286 16.5713 0.443331 16.6385 0.551322 16.6838C0.659312 16.7292 0.774408 16.7511 0.889503 16.7511H20.4486C20.5651 16.7525 20.6802 16.7306 20.7897 16.6853C20.8976 16.64 20.9971 16.5742 21.0795 16.4909C21.1634 16.4076 21.2287 16.3068 21.2742 16.1972C21.3197 16.0861 21.3438 15.9677 21.3438 15.8478V12.2276C21.3438 12.1078 21.3197 11.9894 21.2742 11.8783C21.2287 11.7672 21.1634 11.6678 21.0795 11.5831C20.9957 11.4983 20.8976 11.4325 20.7897 11.3872C20.6817 11.3419 20.5651 11.32 20.4486 11.3215V11.32Z"
      fill="url(#paint1_linear_2501_1709)"
    />
    <path
      opacity="0.4"
      d="M20.4486 11.32H14.978C15.0164 9.93154 15.6459 9.51354 16.9318 8.67169L19.9613 6.67669C20.3691 6.42531 20.7101 6.07162 20.9516 5.65069C21.1932 5.22977 21.3282 4.75185 21.3452 4.26369V1.29677C21.3452 0.453463 20.7513 0.228386 19.974 0.74431L15.9556 3.40869C14.5191 4.36892 13.6836 5.43731 13.3056 6.75416C13.0498 5.36862 12.0083 4.07077 10.6939 3.38823L6.71959 1.34354C5.9395 0.954771 5.34555 1.05123 5.33986 1.89016L5.32992 4.85708C5.33276 5.32769 5.46206 5.78808 5.70504 6.18854C5.9466 6.589 6.29189 6.912 6.70112 7.12246L9.68934 8.64392C10.9213 9.28262 11.6317 9.52377 11.6587 11.3185H0.889503C0.772987 11.3185 0.657892 11.3405 0.549901 11.3858C0.44191 11.4311 0.343866 11.4983 0.261451 11.5816C0.179037 11.6664 0.113675 11.7658 0.0682047 11.8768C0.0227349 11.9879 0 12.1063 0 12.2262V15.8464C0 15.9662 0.0241558 16.0832 0.0696257 16.1942C0.115095 16.3038 0.180458 16.4047 0.262872 16.488C0.345286 16.5713 0.443331 16.6385 0.551322 16.6838C0.659312 16.7292 0.774408 16.7511 0.889503 16.7511H20.4486C20.5651 16.7525 20.6802 16.7306 20.7897 16.6853C20.8976 16.64 20.9971 16.5742 21.0795 16.4909C21.1634 16.4076 21.2287 16.3068 21.2742 16.1972C21.3197 16.0861 21.3438 15.9677 21.3438 15.8478V12.2276C21.3438 12.1078 21.3197 11.9894 21.2742 11.8783C21.2287 11.7672 21.1634 11.6678 21.0795 11.5831C20.9957 11.4983 20.8976 11.4325 20.7897 11.3872C20.6817 11.3419 20.5651 11.32 20.4486 11.3215V11.32Z"
      fill="url(#paint2_linear_2501_1709)"
      fill-opacity="0.5"
    />
    <path
      d="M140.029 15.9797C137.504 15.9797 135.513 17.2001 134.325 19.0942V15.9563H132.424V38.4698H134.325V30.3715C135.513 32.2349 137.533 33.3968 140.029 33.3968C144.425 33.3968 147.426 29.9432 147.426 24.6875C147.426 19.4318 144.425 15.9782 140.029 15.9782V15.9797ZM134.325 27.8971V21.4795C135.276 19.0957 137.326 17.6897 139.732 17.6897C143.207 17.6897 145.495 20.4403 145.495 24.6875C145.495 28.9348 143.207 31.6854 139.732 31.6854C137.325 31.6854 135.276 30.2487 134.325 27.8956V27.8971Z"
      fill="#0075FF"
    />
    <path
      d="M161.419 33.1277H163.276V22.3971C163.276 18.394 160.723 15.9795 156.622 15.9795C152.521 15.9795 150.056 18.1499 149.818 21.7248H151.749C151.899 19.1583 153.74 17.5989 156.562 17.5989C159.563 17.5989 161.375 19.4024 161.375 22.3357V23.1907H157.393C152.878 23.1907 150.323 25.177 150.323 28.6306C150.323 31.6559 152.343 33.3981 155.462 33.3981C158.284 33.3981 160.275 32.0535 161.405 29.7618L161.417 33.1277H161.419ZM152.255 28.5692C152.255 26.1854 154.067 24.8101 157.305 24.8101H161.375V27.682C160.127 30.2178 158.196 31.6852 155.7 31.6852C153.561 31.6852 152.254 30.5846 152.254 28.5677L152.255 28.5692Z"
      fill="#0075FF"
    />
    <path
      d="M171.755 26.124L167.744 15.978H165.724L172.23 32.3882L171.784 33.5501C170.774 36.026 170.03 36.8503 168.605 36.8503H165.931V38.4696H168.635C170.774 38.4696 172.023 37.736 173.24 34.7106L180.727 15.978H178.737L174.755 26.124L173.24 30.1886L171.755 26.124Z"
      fill="#0075FF"
    />
    <path
      d="M186 30.3904C186.005 30.9239 185.854 31.4456 185.568 31.8899C185.283 32.3343 184.876 32.6821 184.399 32.8896C183.921 33.0957 183.394 33.1527 182.886 33.0504C182.377 32.9496 181.909 32.6938 181.541 32.3182C181.173 31.9426 180.923 31.4632 180.821 30.9399C180.719 30.4167 180.77 29.8759 180.967 29.3834C181.165 28.8909 181.5 28.4699 181.932 28.1733C182.363 27.8766 182.87 27.7187 183.387 27.7202C183.73 27.7158 184.071 27.7816 184.387 27.9146C184.706 28.0476 184.994 28.2434 185.237 28.4919C185.48 28.7403 185.673 29.037 185.804 29.3629C185.935 29.6889 186.002 30.0382 185.999 30.3919L186 30.3904ZM185.51 30.3904C185.509 29.9563 185.382 29.5339 185.148 29.1744C184.912 28.8149 184.579 28.5343 184.189 28.3706C183.799 28.2054 183.37 28.163 182.957 28.2493C182.543 28.3355 182.164 28.5445 181.867 28.8514C181.57 29.1583 181.367 29.55 181.286 29.9753C181.205 30.4006 181.247 30.842 181.409 31.241C181.571 31.6415 181.845 31.9835 182.195 32.2232C182.546 32.4629 182.958 32.5915 183.38 32.5915C183.661 32.5959 183.941 32.5418 184.203 32.4322C184.464 32.3226 184.702 32.1603 184.9 31.9557C185.099 31.7511 185.257 31.507 185.362 31.2381C185.469 30.9692 185.52 30.6813 185.516 30.3919H185.509L185.51 30.3904ZM183.622 29.0473C184.112 29.0473 184.505 29.3366 184.505 29.8496C184.511 30.0265 184.459 30.2019 184.358 30.3451C184.255 30.4883 184.11 30.5921 183.944 30.6403L184.586 31.7336H183.998L183.41 30.6813H182.954V31.7336H182.456V29.0487H183.624L183.622 29.0473ZM182.952 30.2939H183.514C183.781 30.2939 183.983 30.1551 183.983 29.8774C183.983 29.5997 183.796 29.4769 183.514 29.4769H182.952V30.2939Z"
      fill="#0075FF"
    />
  </g>
  <defs>
    <linearGradient
      id="paint0_linear_2501_1709"
      x1="6.61187"
      y1="16.5876"
      x2="17.2359"
      y2="35.146"
      gradientUnits="userSpaceOnUse"
    >
      <stop stop-color="#25A2FA" />
      <stop
        offset="0.48"
        stop-color="#0075FF"
      />
      <stop
        offset="1"
        stop-color="#3F58EA"
      />
    </linearGradient>
    <linearGradient
      id="paint1_linear_2501_1709"
      x1="19.535"
      y1="17.0025"
      x2="1.3224"
      y2="0.553157"
      gradientUnits="userSpaceOnUse"
    >
      <stop stop-color="#00BBE9" />
      <stop
        offset="0.1"
        stop-color="#01C3DC"
      />
      <stop
        offset="0.18"
        stop-color="#02CDCE"
      />
      <stop
        offset="0.24"
        stop-color="#09D1C0"
      />
      <stop
        offset="0.37"
        stop-color="#1BDD9A"
      />
      <stop
        offset="0.55"
        stop-color="#38EF5F"
      />
      <stop
        offset="0.59"
        stop-color="#3FF350"
      />
      <stop
        offset="0.67"
        stop-color="#4BF550"
      />
      <stop
        offset="0.82"
        stop-color="#69F950"
      />
      <stop
        offset="1"
        stop-color="#95FF4F"
      />
    </linearGradient>
    <linearGradient
      id="paint2_linear_2501_1709"
      x1="0.744568"
      y1="17.286"
      x2="22.9542"
      y2="3.25423"
      gradientUnits="userSpaceOnUse"
    >
      <stop
        stop-color="#01BDE6"
        stop-opacity="0"
      />
      <stop
        offset="0.1"
        stop-color="#06BEE2"
        stop-opacity="0.02"
      />
      <stop
        offset="0.23"
        stop-color="#14C2D7"
        stop-opacity="0.08"
      />
      <stop
        offset="0.36"
        stop-color="#2AC8C4"
        stop-opacity="0.17"
      />
      <stop
        offset="0.51"
        stop-color="#4AD0AA"
        stop-opacity="0.31"
      />
      <stop
        offset="0.65"
        stop-color="#73DB88"
        stop-opacity="0.48"
      />
      <stop
        offset="0.81"
        stop-color="#A5E85F"
        stop-opacity="0.69"
      />
      <stop
        offset="1"
        stop-color="#EEFB24"
      />
    </linearGradient>
    <clipPath id="clip0_2501_1709">
      <rect
        width="186"
        height="38"
        fill="white"
        transform="translate(0 0.469727)"
      />
    </clipPath>
  </defs>
</svg>