<svg
  viewBox="0 0 80 81"
  fill="none"
  xmlns="http://www.w3.org/2000/svg"
>
  <path
    fill-rule="evenodd"
    clip-rule="evenodd"
    d="M20 15.5V25.5H60V15.5H20ZM17.5 10.5C16.1193 10.5 15 11.6193 15 13V28C15 29.3807 16.1193 30.5 17.5 30.5H25V35.5H12.5C11.1193 35.5 10 36.6193 10 38V70.5H7.5C6.11929 70.5 5 71.6193 5 73C5 74.3807 6.11929 75.5 7.5 75.5H12.5H35H45H67.5H72.5C73.8807 75.5 75 74.3807 75 73C75 71.6193 73.8807 70.5 72.5 70.5H70V38C70 36.6193 68.8807 35.5 67.5 35.5H55V30.5H62.5C63.8807 30.5 65 29.3807 65 28V13C65 11.6193 63.8807 10.5 62.5 10.5H17.5ZM30 35.5V30.5H50V35.5H30ZM65 70.5V40.5H15V70.5H30V58C30 55.2386 32.2386 53 35 53H45C47.7614 53 50 55.2386 50 58V70.5H65ZM45 70.5V58H35V70.5H45ZM14.25 17H9.75V23H14.25V17Z"
    fill="#0E1214"
  />
</svg>