<svg
  viewBox="0 0 70 71"
  fill="none"
  xmlns="http://www.w3.org/2000/svg"
>
  <path
    d="M32.5 38.0001H65C65 39.6814 64.8696 41.3528 64.6131 43.0001C63.889 47.6508 62.1598 52.1095 59.5228 56.0561C55.9516 61.4007 50.8758 65.5663 44.9372 68.0262C38.9986 70.486 32.464 71.1296 26.1596 69.8756C19.8552 68.6216 14.0642 65.5263 9.51904 60.9811C4.97383 56.4359 1.87851 50.6449 0.624493 44.3405C-0.629527 38.0362 0.0140817 31.5015 2.47393 25.5629C4.93378 19.6243 9.09938 14.5485 14.444 10.9773C18.3906 8.34027 22.8493 6.61113 27.5 5.887C29.1473 5.63051 30.8187 5.5001 32.5 5.5001V38.0001ZM43.0739 43.0001C43.0665 47.2294 39.6357 50.6557 35.4047 50.6557H32.7871V55.0136C32.7871 56.3944 31.6678 57.5136 30.2871 57.5136C28.9064 57.5136 27.7871 56.3944 27.7871 55.0136V50.6557H20C18.6193 50.6557 17.5 49.5364 17.5 48.1557C17.5 46.775 18.6193 45.6557 20 45.6557H35.4047C36.8743 45.6557 38.0665 44.468 38.0739 43.0001H27.5V40.3173H27.1797L27.1228 40.3167H25.1695C20.9339 40.3167 17.5003 36.8831 17.5003 32.6475C17.5003 28.4119 20.9339 24.9783 25.1695 24.9783H27.5V10.9585C23.8429 11.6347 20.3431 13.0491 17.2218 15.1347C12.6995 18.1564 9.17474 22.4513 7.09333 27.4763C5.01192 32.5013 4.46733 38.0306 5.52842 43.3651C6.58951 48.6996 9.20863 53.5996 13.0546 57.4455C16.9005 61.2915 21.8005 63.9106 27.135 64.9717C32.4695 66.0328 37.9988 65.4882 43.0238 63.4068C48.0488 61.3254 52.3437 57.8006 55.3654 53.2783C57.451 50.157 58.8654 46.6573 59.5416 43.0001H43.0739ZM27.5 35.3167V29.9783H25.1695C23.6954 29.9783 22.5003 31.1733 22.5003 32.6475C22.5003 34.1216 23.6954 35.3167 25.1695 35.3167H27.5Z"
    fill="#0E1214"
  />
  <path
    d="M39.9998 5.91992C42.2179 6.29486 44.3921 6.91898 46.4803 7.78394C50.1201 9.29158 53.4272 11.5014 56.213 14.2871C58.9988 17.0729 61.2085 20.3801 62.7162 24.0198C63.5811 26.108 64.2053 28.2822 64.5802 30.5003L39.9998 30.5003V5.91992ZM39.9999 5.49637C39.9999 5.49636 40 5.49475 39.9999 5.49637V5.49637ZM39.9828 0.85686C37.2496 0.463706 34.9998 2.7389 34.9998 5.50032V30.5003C34.9998 33.2617 37.2384 35.5003 39.9998 35.5003L64.9998 35.5003C67.7612 35.5003 70.0364 33.2506 69.6433 30.5173C69.2287 27.6348 68.455 24.8089 67.3356 22.1064C65.5767 17.86 62.9986 14.0016 59.7485 10.7516C56.4985 7.50153 52.6401 4.92345 48.3937 3.16454C45.6912 2.04514 42.8653 1.27147 39.9828 0.85686Z"
    fill="#0E1214"
  />
</svg>