<svg
  viewBox="0 0 40 41"
  fill="none"
  xmlns="http://www.w3.org/2000/svg"
>
  <circle
    cx="20"
    cy="20.4697"
    r="20"
    fill="url(#paint0_linear_2501_1767)"
  />
  <g clip-path="url(#clip0_2501_1767)">
    <path
      d="M20 30C14.477 30 10 25.523 10 20C10 14.477 14.477 10 20 10C25.523 10 30 14.477 30 20C30 25.523 25.523 30 20 30ZM20 28C22.1217 28 24.1566 27.1571 25.6569 25.6569C27.1571 24.1566 28 22.1217 28 20C28 17.8783 27.1571 15.8434 25.6569 14.3431C24.1566 12.8429 22.1217 12 20 12C17.8783 12 15.8434 12.8429 14.3431 14.3431C12.8429 15.8434 12 17.8783 12 20C12 22.1217 12.8429 24.1566 14.3431 25.6569C15.8434 27.1571 17.8783 28 20 28ZM16.5 22H22C22.1326 22 22.2598 21.9473 22.3536 21.8536C22.4473 21.7598 22.5 21.6326 22.5 21.5C22.5 21.3674 22.4473 21.2402 22.3536 21.1464C22.2598 21.0527 22.1326 21 22 21H18C17.337 21 16.7011 20.7366 16.2322 20.2678C15.7634 19.7989 15.5 19.163 15.5 18.5C15.5 17.837 15.7634 17.2011 16.2322 16.7322C16.7011 16.2634 17.337 16 18 16H19V14H21V16H23.5V18H18C17.8674 18 17.7402 18.0527 17.6464 18.1464C17.5527 18.2402 17.5 18.3674 17.5 18.5C17.5 18.6326 17.5527 18.7598 17.6464 18.8536C17.7402 18.9473 17.8674 19 18 19H22C22.663 19 23.2989 19.2634 23.7678 19.7322C24.2366 20.2011 24.5 20.837 24.5 21.5C24.5 22.163 24.2366 22.7989 23.7678 23.2678C23.2989 23.7366 22.663 24 22 24H21V26H19V24H16.5V22Z"
      fill="white"
    />
  </g>
  <defs>
    <linearGradient
      id="paint0_linear_2501_1767"
      x1="7.61566"
      y1="-1.62705"
      x2="42.5992"
      y2="11.1908"
      gradientUnits="userSpaceOnUse"
    >
      <stop stop-color="#24A4FF" />
      <stop
        offset="0.5"
        stop-color="#0075FF"
      />
      <stop
        offset="1"
        stop-color="#3F58E9"
      />
    </linearGradient>
    <clipPath id="clip0_2501_1767">
      <rect
        width="24"
        height="24"
        fill="white"
        transform="translate(8 8)"
      />
    </clipPath>
  </defs>
</svg>