<svg
  viewBox="0 0 80 81"
  fill="none"
  xmlns="http://www.w3.org/2000/svg"
>
  <path
    fill-rule="evenodd"
    clip-rule="evenodd"
    d="M10 20.5V60.5H70V20.5H10ZM9 15.5C6.79086 15.5 5 17.2909 5 19.5V61.5C5 63.7091 6.79086 65.5 9 65.5H71C73.2091 65.5 75 63.7091 75 61.5V19.5C75 17.2909 73.2091 15.5 71 15.5H9ZM17.5 53C17.5 51.6193 18.6193 50.5 20 50.5L60 50.5006C61.3808 50.5006 62.5 51.6199 62.5 53.0007C62.5 54.3814 61.3807 55.5006 60 55.5006L20 55.5C18.6192 55.5 17.5 54.3807 17.5 53ZM18.5 30.5C17.9477 30.5 17.5 30.9477 17.5 31.5V39.5C17.5 40.0523 17.9477 40.5 18.5 40.5H26.5C27.0523 40.5 27.5 40.0523 27.5 39.5V31.5C27.5 30.9477 27.0523 30.5 26.5 30.5H18.5Z"
    fill="#0E1214"
  />
</svg>