<svg
  viewBox="0 0 26 27"
  fill="none"
  xmlns="http://www.w3.org/2000/svg"
>
  <path
    d="M25 13.5303C25 20.1577 19.6274 25.5303 13 25.5303C6.37258 25.5303 1 20.1577 1 13.5303C1 6.90286 6.37258 1.53027 13 1.53027C19.6274 1.53027 25 6.90286 25 13.5303Z"
    stroke="#18223D"
    stroke-width="2"
    stroke-linecap="round"
  />
  <path
    fill-rule="evenodd"
    clip-rule="evenodd"
    d="M7.95348 8.53136C8.34216 8.13899 8.97532 8.136 9.36768 8.52468L18.0397 17.1151C18.432 17.5038 18.435 18.1369 18.0463 18.5293C17.6577 18.9217 17.0245 18.9247 16.6321 18.536L7.96016 9.94556C7.5678 9.55688 7.56481 8.92372 7.95348 8.53136Z"
    fill="#18223D"
  />
  <path
    fill-rule="evenodd"
    clip-rule="evenodd"
    d="M18.0589 8.50312C18.4482 8.89487 18.4462 9.52803 18.0544 9.91733L9.35528 18.5621C8.96353 18.9514 8.33037 18.9494 7.94107 18.5577C7.55177 18.1659 7.55376 17.5328 7.9455 17.1435L16.6447 8.49869C17.0364 8.10939 17.6696 8.11137 18.0589 8.50312Z"
    fill="#18223D"
  />
</svg>